<?xml version="1.0" encoding="UTF-8"?>
<!DOCTYPE svg PUBLIC "-//W3C//DTD SVG 1.1//EN" "http://www.w3.org/Graphics/SVG/1.1/DTD/svg11.dtd">
<!-- Creator: CorelDRAW X7 -->
<svg xmlns="http://www.w3.org/2000/svg" xml:space="preserve" width="64.0073mm" height="10.4437mm" version="1.1" style="shape-rendering:geometricPrecision; text-rendering:geometricPrecision; image-rendering:optimizeQuality; fill-rule:evenodd; clip-rule:evenodd"
viewBox="0 0 4221 689"
 xmlns:xlink="http://www.w3.org/1999/xlink">
 <defs>
  <style type="text/css">
   <![CDATA[
    .str0 {stroke:#ED4D38;stroke-width:46.5279;stroke-linecap:round}
    .fil2 {fill:none}
    .fil0 {fill:#2B2A29;fill-rule:nonzero}
    .fil1 {fill:#ED4D38;fill-rule:nonzero}
   ]]>
  </style>
 </defs>
 <g id="Слой_x0020_1">
  <metadata id="CorelCorpID_0Corel-Layer"/>
  <g id="_2156681023552">
   <path class="fil0" d="M418 493c-37,-65 -60,-102 -98,-169 -2,-4 -2,-9 1,-14 22,-36 44,-71 73,-113 2,-3 5,-5 9,-5l27 0c7,0 12,-5 12,-12l0 -19c0,-8 -5,-12 -12,-12l-51 0c-7,0 -13,3 -17,9 -30,39 -85,124 -103,151 -3,5 -4,12 -1,18 17,27 64,106 95,166 2,3 0,6 -2,6 -4,0 -7,0 -10,0 -7,0 -12,5 -12,12l0 17c0,7 5,12 12,12l94 0c7,0 12,-5 12,-12l-1 -18c0,-6 -5,-11 -11,-11l-6 0c-5,0 -9,-3 -11,-7l0 1zm-253 6c-4,0 -8,4 -9,8 -2,11 -1,19 0,26 0,4 5,7 9,7 25,1 89,2 99,0 10,-3 11,-13 8,-33 -1,-5 -5,-8 -10,-8l-7 0c-5,0 -10,-4 -10,-10 -4,-94 -4,-194 -8,-284 0,-9 4,-13 10,-13l3 0c5,1 11,0 11,-6 0,-10 0,-17 0,-27 0,-8 -5,-9 -10,-9 -24,0 -57,0 -82,0 -5,0 -9,5 -9,11l2 24c0,5 3,7 8,7 0,0 13,-1 13,11 0,94 2,195 2,285 0,5 -4,9 -8,10 -4,1 -8,1 -12,1zm427 46c93,0 134,-92 134,-209 0,-89 -29,-191 -138,-191 -97,8 -130,104 -130,193 0,104 32,207 134,207zm-4 -356c66,0 83,59 83,147 0,101 -19,163 -77,163 -54,0 -81,-67 -81,-164 0,-80 23,-146 75,-146zm196 4c8,1 14,8 14,15 -1,58 3,117 -2,183 -4,51 -20,96 -47,106 -6,2 -10,7 -10,14 -1,11 -1,27 3,28 10,3 14,4 26,3 24,0 39,-19 57,-48l0 0c18,-44 26,-68 28,-129l3 -156c0,-8 7,-14 14,-14 21,0 47,-1 68,0 8,0 14,6 14,14 0,79 1,232 2,277 0,7 -6,13 -13,13l-1 0c-8,0 -13,7 -13,14l2 16c0,7 6,12 12,12l84 -1c7,0 13,-5 13,-13l0 -15c0,-8 -6,-13 -12,-14l-3 0c-6,0 -11,-6 -12,-13 0,-49 -4,-239 -4,-277 0,-6 5,-11 11,-12l5 0c8,0 14,-7 14,-15l0 -16c0,-8 -6,-14 -14,-14l-238 -1c-8,0 -14,6 -14,14l0 15c0,8 5,14 13,14l0 0 0 0zm433 352c93,0 134,-92 134,-209 0,-89 -29,-191 -138,-191 -97,8 -130,104 -130,193 0,104 31,207 134,207zm-4 -356c66,0 82,59 82,147 0,101 -19,163 -77,163 -53,0 -80,-67 -80,-164 0,-80 23,-146 75,-146zm406 -30c0,-6 -5,-10 -10,-10l-201 1c-5,-1 -10,4 -10,10l1 22c0,5 4,10 10,10l5 0c5,0 9,4 9,10 0,88 1,245 1,285 0,5 -4,10 -10,10l-9 1c-5,0 -9,3 -9,8l0 26c0,5 6,8 11,8 26,1 105,4 136,0 35,-4 72,-21 82,-59 8,-28 4,-62 5,-92 0,-20 -6,-46 -15,-64 -20,-38 -62,-53 -105,-51 -6,0 -11,1 -16,1 -7,0 -11,-5 -11,-11 0,-20 1,-49 1,-62 0,-5 5,-9 10,-9l73 -2c6,0 10,5 10,10 0,6 5,10 10,10l21 0c5,0 10,-4 10,-10l1 -42zm-48 299c-3,35 -44,38 -78,35 -6,0 -9,-4 -9,-9 -1,-49 -4,-97 -2,-147 0,-4 3,-8 7,-10 19,-6 53,-2 66,13 15,17 15,40 16,62 0,19 0,38 0,56zm249 -318c-10,0 -19,7 -22,17 -37,113 -94,294 -109,333 -2,5 -7,8 -11,8l-4 0c-8,0 -15,7 -15,15l-1 10c0,9 8,17 17,17l91 -1c7,0 14,-6 14,-13l0 -14c0,-7 -6,-13 -13,-14l-9 0c-4,0 -9,-4 -8,-7 3,-7 7,-18 8,-24 5,-19 9,-32 15,-51 2,-4 5,-7 10,-7 19,0 50,1 71,0 6,0 10,2 12,6 8,24 15,62 21,77 1,3 -1,6 -5,6l-8 0c-6,0 -11,5 -10,11l0 19c0,7 4,12 10,12l91 0c6,0 11,-4 11,-10l0 -20c0,-6 -4,-11 -11,-11l-3 0c-5,0 -9,-3 -10,-7 -17,-44 -76,-249 -102,-335 -3,-9 -12,-16 -22,-17l-8 0zm34 216c1,6 -2,9 -7,9l-51 0c-4,0 -8,-4 -6,-9 7,-30 25,-93 28,-104 1,-2 2,-2 3,-2l4 -1c1,0 2,1 2,2 2,10 20,75 27,105zm326 133c0,5 -3,8 -7,8l-79 0c-3,0 -7,-4 -7,-8l-3 -289c0,-5 4,-8 8,-8l4 0c3,0 7,-4 7,-8l0 -26c0,-4 -3,-8 -7,-8l-84 0c-5,0 -8,4 -8,8l1 27c0,4 3,7 8,7l10 0c4,0 8,4 8,8l1 288c0,5 -3,8 -7,8l-5 0c-4,1 -8,4 -8,8l1 28c0,5 4,8 8,8l381 0c5,0 8,-3 8,-8l0 -26c0,-5 -3,-8 -8,-8l-14 0c-4,-1 -7,-4 -7,-8l0 -290c0,-4 3,-8 7,-8l4 0c4,0 7,-4 7,-8l0 -26c0,-4 -4,-8 -7,-8l-77 -1c-4,0 -8,4 -8,8l1 27c0,4 3,8 7,8l3 0c4,0 8,4 8,8l-1 289c0,5 -3,8 -7,8l-75 0c-4,0 -8,-4 -8,-8l-3 -289c0,-4 3,-8 8,-8 4,0 6,-4 6,-7l0 -27c0,-5 -3,-8 -7,-8l-69 0c-5,0 -8,3 -8,8l1 27c0,4 2,7 7,7l2 0c4,0 7,4 7,8l1 289 0 0zm538 4c-37,-65 -60,-102 -98,-169 -2,-4 -2,-9 1,-14 22,-36 44,-71 73,-113 2,-3 5,-5 9,-5l27 0c7,0 12,-5 12,-12l0 -19c0,-8 -5,-12 -12,-12l-51 0c-7,0 -13,3 -17,9 -30,39 -85,124 -103,151 -3,5 -4,12 -1,18 17,27 64,106 95,166 2,3 0,6 -2,6 -4,0 -7,0 -10,0 -7,0 -12,5 -12,12l0 17c0,7 5,12 12,12l94 0c7,0 12,-5 12,-12l-1 -18c0,-6 -5,-11 -11,-11l-6 0c-5,0 -9,-3 -11,-7l0 1zm-253 6c-4,0 -8,4 -9,8 -2,11 -1,19 0,26 0,4 5,7 9,7 25,1 89,2 99,0 10,-3 11,-13 8,-33 -1,-5 -5,-8 -10,-8l-7 0c-5,0 -10,-4 -10,-10 -4,-94 -4,-194 -8,-284 0,-9 4,-13 10,-13l3 0c5,1 11,0 11,-6 0,-10 0,-17 0,-27 0,-8 -5,-9 -10,-9 -24,0 -57,0 -82,0 -5,0 -9,5 -9,11l2 24c0,5 3,7 8,7 0,0 13,-1 13,11 0,94 2,195 2,285 0,5 -4,9 -8,10 -4,1 -8,1 -12,1zm398 -132c-2,2 -6,0 -6,-3l0 -161c0,-6 4,-10 10,-11l9 0c5,-1 9,-5 10,-10 0,-7 0,-16 0,-23 0,-6 -5,-10 -10,-10 -28,0 -75,-1 -96,0 -7,0 -11,5 -11,11l1 19c1,6 5,11 11,11l6 0c5,0 10,5 10,11 0,47 0,251 0,289 0,5 -3,9 -8,9l-2 0c-5,0 -9,4 -9,9l-1 23c0,5 5,9 10,9l85 0c5,0 9,-4 9,-9l0 -23c0,-5 -4,-9 -9,-9l-13 0c-5,0 -9,-5 -8,-10l0 -27c0,-5 2,-10 5,-14 19,-25 108,-114 117,-123 3,-3 8,-1 8,3 2,47 2,130 2,159 0,6 -4,11 -10,11 -5,1 -10,6 -10,12l0 18c0,7 5,12 12,12l83 0c6,0 11,-5 11,-12l0 -19c0,-6 -5,-11 -11,-11l-4 0c-5,-1 -10,-6 -10,-11 -1,-22 -3,-71 -3,-94l0 -191c0,-6 4,-11 10,-11l4 0c6,-1 10,-6 10,-12l-1 -20c0,-5 -5,-10 -10,-10l-82 1c-6,0 -11,5 -10,12l0 19c0,5 4,10 9,10l5 1c5,0 9,5 9,10 0,8 0,23 0,31 0,5 -4,10 -7,15 -24,29 -87,92 -115,119l0 0zm549 140c-1,-5 -6,-9 -11,-9l-8 0c-6,0 -11,-5 -11,-11l-3 -285c0,-5 4,-10 10,-11l9 0c5,-1 9,-6 10,-11l0 -19c0,-6 -5,-11 -11,-11l-86 -1c-6,0 -11,5 -11,11l-1 19c0,6 5,11 11,11l4 0c6,1 10,6 10,11l1 95c0,6 -5,11 -11,11l-111 0c-6,0 -11,-4 -11,-10l-2 -95c0,-6 5,-11 11,-11l1 0c6,0 11,-5 11,-12l0 -19c0,-6 -5,-10 -11,-10l-75 -1c-6,0 -11,4 -11,10l0 19c0,6 4,11 11,11 5,0 11,5 11,11l1 287c0,6 -5,11 -12,11l-2 -1c-6,0 -11,6 -11,12l1 21c0,5 5,10 11,10l52 0 27 -1c5,1 10,-4 10,-11l0 -18c0,-6 -4,-11 -10,-11l-4 0c-5,-1 -10,-6 -10,-11l1 -126c0,-6 5,-11 11,-11l109 0c6,0 11,4 11,11l4 126c0,5 -4,10 -10,11l-12 2c-6,0 -10,5 -10,11l2 22c2,5 6,7 10,7l94 -1c5,0 10,-4 10,-9l1 -23 0 -1z"/>
   <path class="fil1" d="M3461 529c9,13 26,13 38,12 22,-2 24,-19 24,-36 0,-23 -14,-32 -29,-32 -21,-1 -33,5 -37,21 -2,9 -1,28 4,35zm322 -195c-9,-69 -47,-99 -80,-104 -31,-3 -48,7 -58,23 -1,1 -2,0 -2,-1l0 -8c0,-5 -5,-10 -10,-10l-63 1c-5,0 -10,4 -9,10l0 27c0,5 4,8 8,9l14 0c4,0 8,3 8,8l0 334c0,7 -6,13 -12,13l-10 0c-6,0 -12,5 -12,12l0 20c0,6 5,12 12,12l94 0c7,0 13,-6 13,-13l0 -17c0,-8 -5,-13 -12,-14l-9 0c-7,0 -13,-5 -13,-13 0,-21 0,-69 0,-93 0,-3 3,-4 5,-2 13,14 29,18 46,16 36,-4 68,-28 83,-70 14,-38 8,-99 7,-140zm-69 144c-18,29 -45,26 -64,15 -4,-3 -7,-6 -7,-11l0 -184c0,-1 1,-3 2,-5 54,-49 79,43 79,82 0,17 4,82 -10,103l0 0zm109 206c23,6 95,19 123,-58 30,-100 65,-234 91,-337 1,-3 5,-7 8,-7l5 0c7,0 14,-6 14,-14l2 -18c1,-9 -5,-16 -14,-16l-79 0c-8,0 -15,7 -14,15l0 17c0,8 6,14 13,15l5 1c4,1 6,4 5,8 -4,18 -35,156 -44,188 0,2 -4,2 -4,0 -16,-39 -51,-171 -57,-194 -1,-1 0,-3 2,-3 5,0 13,-1 13,-7l2 -24c1,-8 -6,-15 -14,-15l-64 -1c-7,0 -13,6 -13,14l-1 18c0,8 7,15 14,16 4,0 7,2 8,5l83 250c1,2 1,4 1,7 -4,36 -6,60 -12,73 -13,27 -35,29 -62,25 -9,-4 -18,0 -21,15 -5,23 3,23 10,27z"/>
  </g>
  <path class="fil2 str0" d="M3484 665l-3302 0c-87,0 -159,-72 -159,-159l0 -324c0,-87 72,-159 159,-159l3857 0c88,0 159,72 159,159l0 324c0,87 -71,159 -159,159l-32 0"/>
 </g>
</svg>
