<?xml version="1.0" encoding="UTF-8"?>
<!DOCTYPE svg PUBLIC "-//W3C//DTD SVG 1.1//EN" "http://www.w3.org/Graphics/SVG/1.1/DTD/svg11.dtd">
<!-- Creator: CorelDRAW X7 -->
<svg xmlns="http://www.w3.org/2000/svg" xml:space="preserve" width="74.5233mm" height="14.3636mm" version="1.1" style="shape-rendering:geometricPrecision; text-rendering:geometricPrecision; image-rendering:optimizeQuality; fill-rule:evenodd; clip-rule:evenodd"
viewBox="0 0 1538 296"
 xmlns:xlink="http://www.w3.org/1999/xlink">
 <defs>
  <style type="text/css">
   <![CDATA[
    .str0 {stroke:#EB4A38;stroke-width:14.5621;stroke-linecap:round}
    .fil1 {fill:none}
    .fil2 {fill:#704424;fill-rule:nonzero}
    .fil0 {fill:#EB4A38;fill-rule:nonzero}
   ]]>
  </style>
 </defs>
 <g id="Слой_x0020_1">
  <metadata id="CorelCorpID_0Corel-Layer"/>
  <path class="fil0" d="M171 108c-4,-9 -10,-14 -13,-16 34,-13 51,-45 59,-83 -4,-6 -35,-9 -46,-1 -5,20 -11,54 -45,68 8,-31 12,-50 17,-66 -1,-6 -29,-11 -39,-5 -26,31 -91,15 -99,56 -5,26 22,40 44,34 6,-4 10,-13 9,-19 -6,-3 -7,-10 -5,-17 6,-15 31,-13 41,-24 -12,37 -25,117 -44,116 -10,0 -11,-15 -1,-24 0,-10 -12,-17 -21,-18 -38,1 -42,70 18,70 44,-1 60,-32 72,-73 10,3 12,8 14,18 5,21 2,78 37,89 22,3 35,-21 30,-33 -28,-18 -17,-46 -28,-72zm103 -41c-32,-1 -62,14 -71,52 -10,41 14,60 45,60 17,0 34,-5 47,-15 18,1 41,4 60,-30 1,-2 -10,-10 -12,-7 -9,14 -20,24 -33,22 24,-39 8,-81 -36,-82zm-6 27c9,0 9,17 4,36 -9,1 -14,14 -8,18 -2,2 -5,4 -8,4 -10,0 -11,-20 -6,-34 4,-16 13,-24 18,-24zm148 85c25,-1 44,-21 58,-45 1,-2 -9,-10 -11,-7 -10,15 -20,24 -29,24 -15,0 -13,-35 -4,-75 1,-10 -46,-11 -53,-3 -26,31 -42,64 -52,98 -4,12 41,9 44,1 4,-15 11,-34 19,-55l0 0c-7,41 0,63 28,62zm119 -112c-32,-1 -63,14 -72,52 -9,41 15,60 46,60 17,0 34,-5 47,-15 18,1 41,4 59,-30 2,-2 -9,-10 -11,-7 -9,14 -21,24 -33,22 24,-39 8,-81 -36,-82zm-6 27c8,0 8,17 4,36 -9,1 -14,14 -9,18 -1,2 -5,4 -8,4 -9,0 -10,-20 -6,-34 5,-16 14,-24 19,-24zm120 85c18,0 35,-6 48,-15 17,2 42,3 60,-30 1,-2 -10,-11 -12,-7 -7,11 -22,25 -33,22 19,-30 14,-72 -19,-75 -12,-1 -26,4 -35,12 3,-15 10,-26 23,-33 15,-8 33,-5 40,-20 8,-16 -7,-32 -10,-33 -20,19 -41,23 -61,36 -25,16 -41,43 -44,77 -4,36 3,65 43,66zm8 -27c-12,-1 -8,-25 -5,-34 5,-14 11,-18 17,-17 8,1 9,8 3,30 -7,-1 -14,12 -7,17 -1,1 -3,4 -8,4zm158 -84c-28,3 -68,26 -72,70 -4,37 21,41 35,41 25,-1 35,-16 42,-30 -3,18 2,29 19,30 29,0 51,-16 68,-45 1,-2 -10,-11 -12,-7 -8,13 -20,24 -31,24 -5,0 -9,-5 -5,-20 2,-7 3,-10 5,-15 -4,-6 -29,-13 -38,-8 -5,13 -17,42 -28,43 -8,1 -7,-10 -3,-25 5,-17 19,-30 35,-30 13,-1 28,3 38,11 5,1 19,-13 17,-22 -16,-16 -48,-20 -70,-17zm105 111c14,-1 33,-7 44,-27 0,14 4,27 22,27 17,-1 35,-8 49,-31 -4,23 7,31 19,31 24,0 49,-19 62,-45 1,-2 -9,-10 -11,-7 -9,13 -19,24 -29,24 -9,-1 7,-47 14,-75 -6,-10 -39,-12 -47,-6 -3,17 -8,34 -14,51 -3,12 -12,29 -19,30 -4,0 -4,-6 -2,-16 1,-9 12,-47 15,-59 -6,-11 -39,-11 -46,-6 -4,16 -8,33 -13,47 -4,13 -13,33 -22,34 -4,0 -4,-6 -1,-16 2,-11 12,-46 16,-58 0,-10 -41,-14 -47,-7 -7,23 -12,44 -17,65 -4,17 -7,44 27,44zm320 -52c-11,19 -22,25 -34,25 -12,0 -18,-16 -19,-34 9,-10 22,-22 28,-27 6,-9 -13,-26 -24,-23 -11,7 -23,19 -33,31 6,-22 16,-58 24,-86 2,-10 -43,-15 -47,-7 -10,32 -32,120 -43,166 -1,12 47,6 48,1 2,-10 4,-18 6,-25 2,-5 5,-10 8,-13 5,22 9,44 37,44 21,-1 44,-15 61,-45 2,-2 -9,-10 -12,-7zm83 -57c-4,15 -8,31 -13,46 -3,13 -14,35 -22,35 -7,0 -2,-17 14,-75 -5,-10 -39,-12 -46,-6 -7,23 -13,45 -18,66 -4,18 -4,43 27,43 22,-1 37,-10 50,-31 -5,22 4,31 17,31 30,0 52,-24 63,-45 1,-2 -9,-10 -11,-7 -9,15 -20,24 -28,24 -10,0 7,-47 13,-76 -7,-10 -40,-10 -46,-5zm204 57c-11,17 -21,24 -29,24 -5,0 -6,-4 -4,-13 2,-12 9,-36 15,-61 -6,-10 -38,-12 -46,-6 -3,12 -7,25 -11,40l-17 0c3,-13 5,-22 9,-35 -4,-8 -35,-11 -46,-5 -9,31 -17,68 -27,101 -2,10 47,9 49,1 3,-14 6,-25 9,-36l17 0c-1,2 -1,3 -1,5 -5,21 1,38 32,37 30,-2 49,-24 61,-45 1,-2 -9,-10 -11,-7z"/>
  <line class="fil1 str0" x1="15" y1="200" x2="113" y2= "200" />
  <line class="fil1 str0" x1="227" y1="200" x2="1528" y2= "200" />
  <path class="fil2" d="M238 282l0 -52 36 0 0 52 -7 0 0 -46 -22 0 0 46 -7 0zm82 -20c0,7 -1,12 -4,16 -3,3 -8,5 -13,5 -6,0 -10,-2 -13,-5 -3,-4 -5,-9 -5,-16 0,-7 2,-12 5,-16 3,-3 7,-5 13,-5 5,0 10,2 13,5 3,4 4,9 4,16zm-7 0c0,-5 -1,-9 -2,-12 -2,-2 -5,-3 -8,-3 -4,0 -7,1 -8,3 -2,3 -3,7 -3,12 0,5 1,9 3,11 1,3 4,4 8,4 3,0 6,-1 8,-4 1,-2 2,-6 2,-11zm11 28l0 -14 3 0c3,-4 5,-10 6,-16 1,-6 2,-12 2,-18l22 0 0 34 6 0 0 14 -6 0 0 -8 -27 0 0 8 -6 0zm27 -43l-10 0c0,6 -1,11 -2,16 -2,5 -3,9 -5,13l17 0 0 -29zm49 29c-1,2 -3,3 -5,5 -2,1 -5,2 -9,2 -6,0 -10,-2 -13,-5 -3,-4 -4,-9 -4,-16 0,-7 1,-12 4,-16 3,-3 7,-5 13,-5 6,0 11,2 14,7l-6 3c-1,-1 -2,-2 -3,-3 -1,-1 -3,-1 -5,-1 -4,0 -7,1 -8,4 -2,3 -3,6 -3,11 0,4 1,7 1,9 1,2 2,3 4,4 2,2 4,2 6,2 2,0 4,0 5,-1 2,-1 3,-2 4,-4l5 4zm35 -29l-12 0 0 35 -7 0 0 -35 -12 0 0 -5 31 0 0 5zm30 35l0 -5c-2,1 -4,3 -6,4 -2,1 -5,2 -7,2 -4,0 -7,-1 -9,-4 -2,-2 -3,-5 -3,-8 0,-3 0,-5 2,-7 1,-2 2,-3 4,-4 2,-2 5,-2 9,-3l10 -1 0 -1c0,-4 -1,-6 -3,-7 -2,-1 -4,-1 -7,-1 -3,0 -5,0 -6,1 -2,1 -3,2 -3,3l-6 -3c2,-2 4,-4 6,-5 2,-1 6,-2 9,-2 6,0 10,1 12,3 3,2 4,6 4,11l0 27 -6 0zm0 -20l-7 0c-4,1 -7,1 -9,3 -2,1 -2,3 -2,5 0,3 0,4 1,5 2,1 3,2 6,2 1,0 2,0 3,-1 1,0 1,0 2,-1 1,0 2,-1 3,-2 1,0 2,-1 3,-2l0 -9zm50 8c0,4 -2,7 -5,9 -3,2 -7,3 -12,3l-14 0 0 -40 14 0c5,0 9,1 11,2 3,2 4,4 4,7 0,5 -2,8 -6,10 2,0 4,1 6,3 1,1 2,3 2,6zm-9 -18c0,-2 0,-3 -2,-4 -1,0 -4,-1 -7,-1l-7 0 0 12 7 0c6,0 9,-2 9,-7zm2 18c0,-3 -1,-4 -2,-5 -2,-1 -4,-1 -8,-1l-8 0 0 12 5 0c5,0 8,0 10,-1 2,-1 3,-2 3,-5zm23 -28l0 17 6 0c1,0 2,-1 3,-2 1,-1 3,-2 4,-5 1,-2 2,-6 2,-10l7 0c-1,4 -2,8 -3,11 -1,3 -2,5 -3,6 -1,1 -2,2 -4,2 2,1 3,2 5,3 1,1 2,3 3,6 1,2 2,6 3,12l-6 0c-1,-3 -2,-6 -3,-8 0,-2 -1,-4 -2,-6 -1,-1 -2,-2 -3,-3 -1,0 -2,0 -4,0l-5 0 0 17 -6 0 0 -40 6 0zm38 40l-7 0 0 -40 6 0 0 31 20 -31 6 0 0 40 -6 0 0 -31 -19 31zm53 8l0 -14 4 0c2,-4 4,-10 6,-16 1,-6 1,-12 1,-18l23 0 0 34 6 0 0 14 -6 0 0 -8 -28 0 0 8 -6 0zm27 -43l-9 0c-1,6 -2,11 -3,16 -1,5 -3,9 -5,13l17 0 0 -29zm34 1l0 2c0,7 -1,12 -2,17 -1,5 -3,9 -5,11 -2,3 -4,4 -7,4 0,0 -1,0 -2,0 -1,0 -1,0 -2,0l1 -6c1,0 2,0 3,0 5,0 7,-9 7,-28l0 -6 23 0 0 40 -6 0 0 -34 -10 0zm25 34l10 -17c-3,-1 -5,-2 -6,-4 -2,-2 -2,-5 -2,-8 0,-4 1,-7 3,-8 3,-2 7,-3 12,-3l14 0 0 40 -6 0 0 -16 -9 0 -9 16 -7 0zm8 -29c0,2 0,4 1,5 1,1 2,1 3,2 1,0 3,0 6,0l7 0 0 -13 -7 0c-4,0 -7,1 -8,2 -1,0 -2,2 -2,4zm93 29l-6 0 0 -30 -11 19 -3 0 -10 -19 0 30 -6 0 0 -40 6 0 12 20 11 -20 7 0 0 40zm46 -20c0,7 -2,12 -5,16 -3,3 -7,5 -13,5 -5,0 -10,-2 -13,-5 -3,-4 -4,-9 -4,-16 0,-7 1,-12 4,-16 3,-3 8,-5 13,-5 6,0 10,2 13,5 3,4 5,9 5,16zm-7 0c0,-5 -1,-9 -3,-12 -2,-2 -4,-3 -8,-3 -3,0 -6,1 -8,3 -2,3 -2,7 -2,12 0,5 0,9 2,11 2,3 4,4 8,4 4,0 7,-1 8,-4 2,-2 3,-6 3,-11zm10 28l0 -14 4 0c2,-4 4,-10 5,-16 2,-6 2,-12 2,-18l23 0 0 34 6 0 0 14 -6 0 0 -8 -28 0 0 8 -6 0zm27 -43l-10 0c0,6 -1,11 -2,16 -1,5 -3,9 -5,13l17 0 0 -29zm25 16c0,5 1,9 3,11 1,2 4,3 8,3 2,0 3,0 5,-1 1,-1 2,-2 4,-4l5 4c-2,2 -3,4 -6,5 -2,1 -5,2 -8,2 -6,0 -11,-2 -13,-5 -3,-4 -5,-9 -5,-16 0,-7 2,-12 4,-16 3,-3 8,-5 13,-5 5,0 9,2 12,4 2,3 4,8 4,14l0 4 -26 0zm19 -5c0,-4 -1,-7 -2,-9 -1,-2 -4,-3 -7,-3 -3,0 -5,1 -7,3 -2,2 -3,5 -3,9l19 0zm28 -10l0 2c0,7 0,12 -1,17 -1,5 -3,9 -5,11 -2,3 -4,4 -7,4 -1,0 -1,0 -2,0 -1,0 -2,0 -2,0l1 -6c1,0 2,0 2,0 6,0 8,-9 8,-28l0 -6 23 0 0 40 -6 0 0 -34 -11 0zm35 15c0,5 0,9 2,11 2,2 5,3 9,3 2,0 3,0 4,-1 2,-1 3,-2 4,-4l6 4c-2,2 -4,4 -6,5 -2,1 -5,2 -9,2 -6,0 -10,-2 -13,-5 -3,-4 -4,-9 -4,-16 0,-7 1,-12 4,-16 3,-3 7,-5 13,-5 5,0 9,2 11,4 3,3 4,8 4,14l0 4 -25 0zm19 -5c0,-4 -1,-7 -2,-9 -2,-2 -4,-3 -7,-3 -3,0 -6,1 -7,3 -2,2 -3,5 -3,9l19 0zm23 24l-7 0 0 -40 7 0 0 31 19 -31 6 0 0 40 -6 0 0 -31 -19 31zm22 -55c0,2 0,4 -2,5 -1,2 -2,3 -4,4 -2,1 -4,1 -6,1 -3,0 -5,0 -7,-1 -2,-1 -3,-2 -4,-4 -1,-1 -2,-3 -2,-5l6 0c1,2 1,4 2,5 2,1 3,1 5,1 2,0 3,0 4,-1 1,-1 2,-3 2,-5l6 0zm44 55l-7 0 0 -40 6 0 0 31 19 -31 7 0 0 40 -6 0 0 -31 -19 31zm95 0l-6 0 0 -30 -11 19 -3 0 -10 -19 0 30 -6 0 0 -40 6 0 12 20 11 -20 7 0 0 40zm20 0l-7 0 0 -40 6 0 0 31 19 -31 7 0 0 40 -6 0 0 -31 -19 31zm69 0l-6 0 0 -18 -19 0 0 18 -6 0 0 -40 6 0 0 17 19 0 0 -17 6 0 0 40zm20 0l-7 0 0 -40 6 0 0 31 20 -31 6 0 0 40 -6 0 0 -31 -19 31zm60 0l0 -5c-2,1 -4,3 -6,4 -2,1 -4,2 -7,2 -3,0 -6,-1 -8,-4 -2,-2 -3,-5 -3,-8 0,-3 0,-5 1,-7 1,-2 3,-3 5,-4 2,-2 5,-2 9,-3l9 -1 0 -1c0,-4 0,-6 -2,-7 -2,-1 -4,-1 -7,-1 -3,0 -5,0 -6,1 -2,1 -3,2 -3,3l-6 -3c1,-2 3,-4 6,-5 2,-1 5,-2 9,-2 6,0 10,1 12,3 3,2 4,6 4,11l0 27 -7 0zm0 -20l-6 0c-4,1 -7,1 -9,3 -2,1 -3,3 -3,5 0,3 1,4 2,5 1,1 3,2 5,2 1,0 2,0 3,-1 1,0 2,0 3,-1 1,0 2,-1 3,-2 1,0 2,-1 2,-2l0 -9zm44 -15l-13 0 0 35 -6 0 0 -35 -13 0 0 -5 32 0 0 5zm13 35l-6 0 0 -40 6 0 0 17 7 0c1,-12 7,-18 18,-18 5,0 10,2 13,5 3,4 4,9 4,16 0,7 -1,12 -4,15 -3,4 -8,6 -13,6 -5,0 -10,-2 -13,-5 -2,-3 -4,-7 -5,-14l-7 0 0 18zm36 -20c0,-5 -1,-9 -3,-12 -2,-2 -5,-4 -8,-4 -4,0 -7,2 -8,4 -2,3 -3,7 -3,12 0,5 1,9 3,12 1,2 4,4 8,4 3,0 6,-2 8,-4 2,-3 3,-7 3,-12zm50 0c0,6 -1,11 -4,15 -3,4 -7,6 -12,6 -4,0 -7,-2 -11,-5l0 18 -6 0 0 -54 6 0 0 4c2,-1 4,-3 6,-3 2,-1 4,-2 6,-2 5,0 9,2 11,5 3,4 4,9 4,16zm-7 0c0,-10 -3,-15 -9,-15 -2,0 -4,0 -6,1 -2,1 -3,3 -5,4l0 21c4,3 7,4 10,4 3,0 6,-1 8,-4 2,-2 2,-6 2,-11z"/>
 </g>
</svg>
