<?xml version="1.0" encoding="UTF-8"?>
<!DOCTYPE svg PUBLIC "-//W3C//DTD SVG 1.1//EN" "http://www.w3.org/Graphics/SVG/1.1/DTD/svg11.dtd">
<!-- Creator: CorelDRAW X7 -->
<svg xmlns="http://www.w3.org/2000/svg" xml:space="preserve" width="54.8475mm" height="6.4516mm" version="1.1" style="shape-rendering:geometricPrecision; text-rendering:geometricPrecision; image-rendering:optimizeQuality; fill-rule:evenodd; clip-rule:evenodd"
viewBox="0 0 65602 7717"
 xmlns:xlink="http://www.w3.org/1999/xlink">
 <defs>
  <style type="text/css">
   <![CDATA[
    .fil1 {fill:#48220E}
    .fil0 {fill:#1F0F05;fill-rule:nonzero}
   ]]>
  </style>
 </defs>
 <g id="Слой_x0020_1">
  <metadata id="CorelCorpID_0Corel-Layer"/>
  <g id="_2156908282480">
   <path class="fil0" d="M658 7595l1813 0 0 -2937 142 0c273,0 486,0 607,233l1084 2167c223,456 516,537 1023,537l1063 0 0 -1519 -192 0c-203,0 -395,-20 -497,-233l-658 -1337c-253,-506 -557,-577 -557,-577l0 -20c0,0 294,-132 537,-628l1448 -2927 -1975 0 -1225 2573c-122,222 -304,222 -557,222l-243 0 0 -2055c0,-517 -223,-740 -739,-740l-1732 0 0 1519 435 0c142,0 223,81 223,223l0 5499zm6178 -2592c0,1630 1306,2714 2947,2714 1640,0 2947,-1084 2947,-2714 0,-1641 -1307,-2745 -2958,-2745 -1630,0 -2936,1104 -2936,2745zm1762 0c0,-790 547,-1286 1185,-1286 637,0 1184,496 1184,1286 0,779 -547,1255 -1184,1255 -638,0 -1185,-476 -1185,-1255zm4466 2612c2055,31 2552,-1377 2552,-3342l0 -425 648 0c142,0 223,91 223,233l0 2775c0,516 222,739 739,739l1620 0 0 -1468 -385 0c-141,0 -222,-81 -222,-223l0 -2785c0,-516 -223,-739 -740,-739l-4142 0 0 1468 608 0 0 405c0,1550 -405,1783 -901,1833l0 1529zm6197 -2612c0,1630 1307,2714 2947,2714 1641,0 2947,-1084 2947,-2714 0,-1641 -1306,-2745 -2957,-2745 -1630,0 -2937,1104 -2937,2745zm1762 0c0,-790 547,-1286 1185,-1286 638,0 1185,496 1185,1286 0,779 -547,1255 -1185,1255 -638,0 -1185,-476 -1185,-1255zm7363 2714c1600,0 2805,-922 2805,-2512 0,-1377 -901,-2380 -2299,-2380 -395,0 -952,81 -1479,547l-20 0c0,-648 577,-871 993,-1033l931 -354c831,-314 1388,-466 1388,-1367l0 -618 -1671 0 0 122c0,202 -122,293 -588,496l-800 354c-1286,567 -1964,1408 -1964,3332 0,1762 567,3413 2704,3413zm-942 -2481c0,-659 446,-1023 982,-1023 537,0 983,364 983,1023 0,658 -446,1043 -983,1043 -536,0 -982,-385 -982,-1043zm4223 901c0,942 729,1580 1711,1580 1074,0 1519,-760 1519,-760l20 0 0 91c0,233 183,547 689,547l1519 0 0 -1468 -385 0c-141,0 -222,-81 -222,-223l0 -1519c0,-1236 -598,-2127 -2482,-2127 -536,0 -2015,71 -2015,1226l0 577 1620 0 0 -233c0,-203 233,-253 456,-253 436,0 669,182 669,678l0 91 -71 0c-800,0 -3028,142 -3028,1793zm1731 -182c0,-436 638,-608 1195,-608l193 0 0 142c0,425 -395,921 -891,921 -324,0 -497,-223 -497,-455zm4608 901c0,516 223,739 739,739l5985 0c517,0 740,-223 740,-739l0 -2785c0,-142 81,-223 223,-223l384 0 0 -1468 -1620 0c-516,0 -739,223 -739,739l0 2836c0,141 -81,222 -223,222l-901 0 0 -3797 -1752 0 0 3797 -861 0c-142,0 -223,-81 -223,-222l0 -2836c0,-516 -223,-739 -739,-739l-1620 0 0 1468 384 0c142,0 223,81 223,223l0 2785zm9033 739l1752 0 0 -1924 243 0c132,0 294,0 385,172l689 1357c172,334 375,395 749,395l1327 0 0 -1468 -375 0c-202,0 -304,-31 -385,-172l-334 -578c-202,-344 -486,-435 -486,-435l0 -20c0,0 192,-102 385,-436l1245 -2106 -1903 0 -902 1650c-91,163 -273,173 -425,173l-213 0 0 -1084c0,-516 -222,-739 -739,-739l-1620 0 0 1468 385 0c141,0 222,81 222,223l0 3524zm6188 0l1752 0 1438 -2339c81,-142 192,-304 283,-517l21 0c-21,203 -21,405 -21,527l0 1590c0,516 223,739 740,739l1488 0 0 -1468 -384 0c-142,0 -223,-81 -223,-223l0 -3524 -1752 0 -1438 2349c-91,152 -193,304 -284,517l-20 0c10,-132 20,-335 20,-517l0 -1610c0,-516 -223,-739 -739,-739l-1489 0 0 1468 385 0c142,0 223,81 223,223l0 3524zm6674 0l1751 0 0 -1924 1590 0 0 1185c0,516 223,739 740,739l1620 0 0 -1468 -385 0c-142,0 -223,-81 -223,-223l0 -3524 -1752 0 0 1873 -1590 0 0 -1134c0,-516 -222,-739 -739,-739l-1620 0 0 1468 385 0c142,0 223,81 223,223l0 3524z"/>
   <g>
    <path class="fil1" d="M4486 3909c0,0 294,-132 537,-628l1448 -2927 -1975 0 -1225 2573c-122,222 -304,222 -557,222l-243 0 0 -2055c0,-517 -223,-740 -739,-740l-1732 0 0 1519 435 0c142,0 223,81 223,223l0 4717 1813 -102 0 -2053 142 0c273,0 486,0 607,233l865 1730 2305 -129 0 -416 -192 0c-203,0 -395,-20 -497,-233l-658 -1337c-253,-506 -557,-577 -557,-577l0 -20z"/>
    <path class="fil1" d="M9772 2258c-1630,0 -2936,1104 -2936,2745 0,549 148,1036 407,1441l5240 -294c159,-339 247,-725 247,-1147 0,-1641 -1307,-2745 -2958,-2745zm-1174 2745c0,-790 547,-1286 1185,-1286 637,0 1184,496 1184,1286 0,779 -547,1255 -1184,1255 -638,0 -1185,-476 -1185,-1255z"/>
    <path class="fil1" d="M13357 2380l0 1468 608 0 0 405c0,1550 -405,1783 -901,1833l0 32 2357 -133c142,-491 195,-1072 195,-1712l0 -425 648 0c142,0 223,91 223,233l0 1845 1752 -98 0 -2709c0,-516 -223,-739 -740,-739l-4142 0z"/>
    <path class="fil1" d="M22198 2258c-1630,0 -2937,1104 -2937,2745 0,269 36,524 103,762l1818 -102c-100,-184 -159,-406 -159,-660 0,-790 547,-1286 1185,-1286 638,0 1185,496 1185,1286 0,202 -37,383 -102,541l1831 -102c22,-142 33,-288 33,-439 0,-1641 -1306,-2745 -2957,-2745z"/>
    <path class="fil1" d="M27646 972c-1286,567 -1964,1408 -1964,3332 0,377 26,749 88,1101l1676 -93c-1,-25 -2,-51 -2,-76 0,-659 446,-1023 982,-1023 528,0 967,352 982,989l1781 -100c-44,-1324 -935,-2277 -2297,-2277 -395,0 -952,81 -1479,547l-20 0c0,-648 577,-871 993,-1033l931 -354c831,-314 1388,-466 1388,-1367l0 -618 -1671 0 0 122c0,202 -122,293 -588,496l-800 354z"/>
    <path class="fil1" d="M34036 2258c-536,0 -2015,71 -2015,1226l0 577 1620 0 0 -233c0,-203 233,-253 456,-253 436,0 669,182 669,678l0 91 -71 0c-568,0 -1857,72 -2556,704l4379 -245 0 -418c0,-1236 -598,-2127 -2482,-2127z"/>
    <path class="fil1" d="M37399 2380l0 1468 384 0c142,0 223,81 223,223l0 649 1752 -99 0 -1502c0,-516 -223,-739 -739,-739l-1620 0z"/>
    <polygon class="fil1" points="40842,2380 40842,4561 42594,4463 42594,2380 "/>
    <path class="fil1" d="M43718 3119l0 1281 1752 -99 0 -230c0,-142 81,-223 223,-223l384 0 0 -1468 -1620 0c-516,0 -739,223 -739,739z"/>
    <path class="fil1" d="M46432 2380l0 1468 385 0c141,0 222,81 222,223l0 142 1752 -98 0 -996c0,-516 -222,-739 -739,-739l-1620 0z"/>
    <path class="fil1" d="M50331 2380l-902 1650c-10,19 -22,36 -35,51l1897 -106 943 -1595 -1903 0z"/>
    <path class="fil1" d="M52619 2380l0 1468 385 0c46,0 85,9 117,25l1726 -97 0 -657c0,-516 -223,-739 -739,-739l-1489 0z"/>
    <path class="fil1" d="M59293 2380l0 1147 2359 -133 0 -275c0,-516 -222,-739 -739,-739l-1620 0z"/>
    <polygon class="fil1" points="63242,2380 63242,3305 64994,3207 64994,2380 "/>
    <polygon class="fil1" points="58321,3581 58321,2380 56569,2380 55745,3725 "/>
   </g>
  </g>
 </g>
</svg>
