<?xml version="1.0" encoding="UTF-8"?>
<!DOCTYPE svg PUBLIC "-//W3C//DTD SVG 1.1//EN" "http://www.w3.org/Graphics/SVG/1.1/DTD/svg11.dtd">
<!-- Creator: CorelDRAW X7 -->
<svg xmlns="http://www.w3.org/2000/svg" xml:space="preserve" width="474px" height="109px" version="1.1" style="shape-rendering:geometricPrecision; text-rendering:geometricPrecision; image-rendering:optimizeQuality; fill-rule:evenodd; clip-rule:evenodd"
viewBox="0 0 950 218"
 xmlns:xlink="http://www.w3.org/1999/xlink">
 <defs>
  <style type="text/css">
   <![CDATA[
    .fil0 {fill:#D92226}
    .fil1 {fill:black;fill-rule:nonzero}
   ]]>
  </style>
 </defs>
 <g id="Слой_x0020_1">
  <metadata id="CorelCorpID_0Corel-Layer"/>
  <g id="_2212930494432">
   <path class="fil0" d="M191 5c-17,7 -24,36 -38,82 -4,11 -10,24 -19,24 -7,0 -7,-8 -5,-17 5,-22 16,-64 19,-75 -3,-7 -25,-8 -29,-3 -5,16 -12,50 -19,69 -5,17 -14,26 -19,26 -9,0 -8,-10 -5,-22 10,-40 13,-49 19,-72 -1,-4 -23,-7 -28,-2 -17,19 -60,9 -64,36 -3,16 14,26 28,21 5,-1 7,-10 6,-12 -3,-2 -4,-6 -3,-10 3,-10 21,-10 27,-17 -6,19 -10,37 -13,48 -9,33 1,47 24,47 15,0 26,-8 34,-21 2,12 9,21 27,21 28,0 43,-15 51,-43 7,-25 16,-50 27,-60 3,-8 -10,-25 -20,-20zm-177 139l462 0c-3,3 -4,7 -5,11 0,1 0,2 0,3l-457 0c-4,0 -7,-3 -7,-7l0 0c0,-4 3,-7 7,-7zm538 0l392 0c3,0 6,3 6,7l0 0c0,4 -3,7 -6,7l-398 0c2,-4 4,-9 6,-14zm347 -88c-27,-1 -45,17 -46,38l0 0c-5,10 -13,14 -19,15 2,-13 -1,-26 -6,-43 12,-20 -17,-26 -34,-8 -12,13 -23,30 -29,39 -5,7 -12,13 -18,13 -4,0 -6,-3 -4,-13 2,-5 3,-7 4,-10 -3,-4 -20,-8 -25,-5 -3,8 -12,27 -18,28 -5,0 -5,-7 -2,-16 3,-11 12,-20 22,-20 9,0 19,2 25,7 4,1 13,-8 11,-14 -10,-11 -31,-13 -45,-11 -17,2 -41,15 -47,39 -6,11 -13,14 -22,14 14,-15 14,-44 -5,-51 -9,-3 -19,-1 -27,3 5,-18 8,-28 11,-42 -1,-6 -22,-8 -31,-4 -5,20 -13,46 -19,73 0,2 0,5 -1,7 -9,15 -17,25 -27,31 8,-28 10,-36 18,-65 -3,-6 -25,-8 -30,-4 -3,10 -5,20 -8,31 -2,7 -9,20 -14,22 -5,2 -3,-6 -2,-13 4,-12 6,-21 10,-36 -2,-6 -26,-8 -30,-4 -4,14 -7,26 -10,38 -6,9 -13,14 -18,15 -4,1 -5,-4 -3,-13 2,-20 16,-58 21,-78 -2,-7 -27,-8 -31,-4 -3,11 -6,22 -11,40 -27,0 -51,14 -58,40 -6,8 -14,15 -22,14 16,-26 5,-53 -24,-54 -20,-1 -40,9 -46,35 -1,2 -1,4 -1,6 -6,8 -13,14 -21,13 16,-26 5,-53 -24,-54 -21,-1 -41,9 -47,35 -6,26 10,38 30,38 11,0 22,-3 31,-9 9,0 21,1 31,-10 4,13 16,19 30,19 12,0 23,-3 31,-9 9,0 20,1 30,-8 2,10 9,17 22,17 17,0 24,-10 29,-19 1,15 8,19 17,19 12,0 22,-5 32,-15 0,8 5,15 18,15 10,0 20,-2 29,-17 -2,6 -4,12 -6,18 -17,2 -39,8 -41,26 -2,15 8,21 24,21 28,0 35,-19 40,-35 12,-5 22,-15 32,-31 4,15 18,18 31,18 12,0 22,-3 30,-9 9,1 21,1 31,-8 3,15 16,17 23,17 16,0 24,-10 28,-19 -2,11 1,19 12,19 18,1 32,-9 42,-25 1,0 1,0 1,-1 4,-7 17,-28 25,-34 3,9 3,17 5,29 -6,2 -7,11 -3,14 -3,2 -8,0 -10,-5 -6,-4 -16,2 -15,8 2,10 17,14 28,14 10,0 20,-3 26,-9 9,0 19,-3 26,-12 5,12 17,21 38,21 24,0 39,-8 51,-29 1,-1 -6,-7 -7,-4 -11,21 -46,25 -51,7 18,2 31,-4 37,-16 5,-12 -1,-29 -24,-30zm-3 16c2,0 2,3 2,5 0,6 -5,12 -13,13 1,-10 6,-18 11,-18zm-285 39c-10,0 -5,-20 0,-34 3,-3 6,-4 9,-4 7,1 4,15 1,23 -6,0 -9,9 -5,12 -1,2 -3,3 -5,3zm-98 42c-3,9 -12,7 -10,0 1,-5 6,-9 13,-10 0,3 -2,7 -3,10zm-79 -79c-5,19 -12,37 -20,36 -7,-1 -1,-19 3,-26 6,-8 13,-10 17,-10zm-102 -1c5,0 5,11 2,24 -6,0 -9,9 -5,11 -1,1 -4,3 -6,3 -6,0 -6,-13 -4,-22 3,-11 9,-16 13,-16zm-93 0c6,0 6,11 3,24 -6,0 -9,9 -6,11 -1,1 -3,3 -5,3 -6,0 -7,-13 -4,-22 3,-11 9,-16 12,-16z"/>
   <path class="fil1" d="M294 185l0 32 14 0c6,0 12,-2 12,-9 0,-4 -3,-7 -7,-8 3,-1 5,-4 5,-7 0,-6 -5,-8 -10,-8l-14 0zm5 3l8 0c3,0 7,1 7,5 0,5 -4,6 -8,6l-7 0 0 -11zm0 14l7 0c4,0 9,0 9,5 0,6 -4,6 -8,6l-8 0 0 -11zm46 12c-1,0 -1,0 -1,0 -1,0 -2,-1 -2,-2 0,-4 1,-7 1,-11 0,-2 0,-4 -2,-6 -2,-1 -4,-2 -7,-2 -6,0 -10,3 -10,8l4 0c0,-4 2,-5 5,-5 4,0 6,2 6,4 0,3 -2,3 -8,4 -5,0 -8,3 -8,7 0,4 3,6 8,6 3,0 6,-1 8,-3 0,2 1,3 3,3 1,0 2,0 3,0l0 -3zm-6 -9l0 4c0,3 -4,5 -7,5 -3,0 -5,-1 -5,-3 0,-4 4,-4 7,-5 1,0 3,0 5,-1zm27 -5c0,-5 -4,-7 -10,-7 -5,0 -8,3 -8,7 0,5 5,6 9,7 3,0 6,1 6,3 0,3 -3,4 -6,4 -4,0 -6,-1 -6,-5l-4 0c0,6 4,8 10,8 6,0 10,-2 10,-7 0,-5 -6,-6 -9,-7 -4,-1 -7,-1 -7,-4 0,-2 2,-3 5,-3 3,0 6,1 6,4l4 0zm25 9l-4 0c-1,4 -3,5 -6,5 -5,0 -8,-3 -8,-7l0 -1 18 0 0 0c0,-7 -3,-13 -11,-13 -6,0 -10,5 -10,13 0,7 4,12 10,12 6,0 9,-3 11,-9zm-4 -6l-14 0c1,-4 4,-7 7,-7 4,0 7,3 7,7zm25 -3c0,-5 -4,-7 -9,-7 -6,0 -9,3 -9,7 0,5 5,6 9,7 3,0 6,1 6,3 0,3 -2,4 -6,4 -3,0 -6,-1 -6,-5l-4 0c1,6 4,8 10,8 6,0 10,-2 10,-7 0,-5 -5,-6 -9,-7 -3,-1 -6,-1 -6,-4 0,-2 2,-3 5,-3 3,0 5,1 5,4l4 0zm28 -15c-1,0 -1,0 -2,0 -4,0 -7,1 -7,6l0 3 -4 0 0 3 4 0 0 20 4 0 0 -20 5 0 0 -3 -5 0 0 -3c0,-3 1,-3 3,-3 1,0 2,0 2,0l0 -3zm13 8c-7,0 -11,5 -11,12 0,8 4,12 11,12 7,0 11,-4 11,-12 0,-8 -4,-12 -11,-12zm0 3c4,0 7,4 7,9 0,6 -2,9 -7,9 -5,0 -7,-3 -7,-9 0,-5 2,-9 7,-9zm28 -3c-4,0 -7,2 -9,6l0 -5 -4 0 0 23 4 0 0 -10c0,-5 1,-10 8,-10 0,0 0,0 1,0l0 -4zm19 1l-4 0 0 23 4 0 0 -12c0,-5 1,-9 6,-9 4,0 4,3 4,6l0 15 4 0 0 -13c0,-5 2,-8 6,-8 4,0 5,3 5,6l0 15 3 0 0 -16c0,-5 -2,-8 -7,-8 -3,0 -6,1 -8,4 -1,-3 -3,-4 -6,-4 -3,0 -5,1 -7,4l0 -3zm44 -1c-7,0 -11,5 -11,12 0,8 4,12 11,12 7,0 11,-4 11,-12 0,-8 -4,-12 -11,-12zm0 3c5,0 7,4 7,9 0,6 -2,9 -7,9 -4,0 -7,-3 -7,-9 0,-5 3,-9 7,-9zm37 -11l-4 0 0 12c-2,-3 -4,-4 -8,-4 -7,0 -10,6 -10,12 0,8 4,12 10,12 4,0 7,-1 8,-4l0 4 4 0 0 -32zm-11 11c5,0 7,5 7,9 0,6 -3,9 -7,9 -5,0 -7,-3 -7,-9 0,-5 2,-9 7,-9zm36 13l-4 0c-1,4 -2,5 -6,5 -4,0 -7,-3 -7,-7l0 -1 17 0 0 0c0,-7 -2,-13 -10,-13 -6,0 -11,5 -11,13 0,7 4,12 11,12 6,0 9,-3 10,-9zm-4 -6l-13 0c1,-4 3,-7 7,-7 4,0 6,3 6,7zm12 -18l-3 0 0 32 3 0 0 -32zm24 15c0,-5 -5,-7 -10,-7 -5,0 -9,3 -9,7 0,5 6,6 10,7 3,0 6,1 6,3 0,3 -3,4 -6,4 -4,0 -6,-1 -6,-5l-4 0c0,6 4,8 10,8 6,0 9,-2 9,-7 0,-5 -5,-6 -9,-7 -3,-1 -6,-1 -6,-4 0,-2 2,-3 5,-3 3,0 5,1 6,4l4 0zm38 14c-1,0 -1,0 -1,0 -1,0 -2,-1 -2,-2 0,-4 0,-7 0,-11 0,-2 0,-4 -1,-6 -2,-1 -4,-2 -8,-2 -5,0 -9,3 -9,8l4 0c0,-4 2,-5 5,-5 4,0 6,2 6,4 0,3 -2,3 -8,4 -5,0 -8,3 -8,7 0,4 3,6 7,6 4,0 6,-1 9,-3 0,2 1,3 3,3 1,0 2,0 3,0l0 -3zm-6 -9l0 4c0,3 -4,5 -8,5 -2,0 -4,-1 -4,-3 0,-4 4,-4 6,-5 2,0 4,0 6,-1zm13 -11l-4 0 0 23 4 0 0 -12c0,-5 2,-9 7,-9 4,0 5,3 5,7l0 14 3 0 0 -16c0,-5 -2,-8 -7,-8 -4,0 -6,1 -8,4l0 -3zm42 -9l-4 0 0 12c-2,-3 -4,-4 -7,-4 -8,0 -11,6 -11,12 0,8 4,12 11,12 3,0 6,-1 7,-4l0 4 4 0 0 -32zm-11 11c5,0 7,5 7,9 0,6 -2,9 -7,9 -4,0 -7,-3 -7,-9 0,-5 3,-9 7,-9zm33 -2l-4 0 0 23 4 0 0 -12c0,-5 1,-9 6,-9 4,0 4,3 4,6l0 15 4 0 0 -13c0,-5 2,-8 6,-8 4,0 5,3 5,6l0 15 4 0 0 -16c0,-5 -3,-8 -8,-8 -3,0 -5,1 -7,4 -2,-3 -4,-4 -7,-4 -3,0 -5,1 -7,4l0 -3zm38 -9l-4 0 0 5 4 0 0 -5zm0 9l-4 0 0 23 4 0 0 -23zm10 0l-4 0 0 23 4 0 0 -12c0,-5 2,-9 7,-9 4,0 5,3 5,7l0 14 3 0 0 -16c0,-5 -2,-8 -7,-8 -4,0 -6,1 -8,4l0 -3zm25 -9l-4 0 0 5 4 0 0 -5zm0 9l-4 0 0 23 4 0 0 -23zm26 20c0,0 0,0 0,0 -2,0 -2,-1 -2,-2 0,-4 0,-7 0,-11 0,-2 0,-4 -1,-6 -2,-1 -5,-2 -8,-2 -6,0 -9,3 -9,8l3 0c1,-4 3,-5 6,-5 4,0 5,2 5,4 0,3 -2,3 -7,4 -5,0 -8,3 -8,7 0,4 3,6 7,6 4,0 6,-1 9,-3 0,2 1,3 3,3 1,0 2,0 2,0l0 -3zm-6 -9l0 4c0,3 -3,5 -7,5 -3,0 -4,-1 -4,-3 0,-4 3,-4 6,-5 2,0 4,0 5,-1zm20 -11l-5 0 0 -7 -3 0 0 7 -4 0 0 3 4 0 0 12c0,5 -1,8 5,8 1,0 2,0 3,0l0 -3c-1,0 -1,0 -2,0 -3,0 -3,-2 -3,-4l0 -13 5 0 0 -3zm23 0l-3 0 0 12c0,4 -2,8 -7,8 -4,0 -5,-2 -5,-5l0 -15 -4 0 0 16c0,5 3,7 8,7 3,0 6,-1 8,-4l0 4 3 0 0 -23zm18 -1c-4,0 -7,2 -8,6l0 -5 -4 0 0 23 4 0 0 -10c0,-5 1,-10 7,-10 1,0 1,0 1,0l0 -4zm22 16l-4 0c-1,4 -3,5 -6,5 -5,0 -7,-3 -7,-7l0 -1 17 0 0 0c0,-7 -3,-13 -10,-13 -7,0 -11,5 -11,13 0,7 4,12 11,12 5,0 9,-3 10,-9zm-4 -6l-13 0c0,-4 3,-7 7,-7 3,0 6,3 6,7zm25 -3c0,-5 -4,-7 -9,-7 -5,0 -9,3 -9,7 0,5 6,6 10,7 3,0 5,1 5,3 0,3 -2,4 -5,4 -4,0 -6,-1 -6,-5l-4 0c0,6 3,8 10,8 5,0 9,-2 9,-7 0,-5 -5,-6 -9,-7 -3,-1 -6,-1 -6,-4 0,-2 2,-3 5,-3 3,0 5,1 6,4l3 0z"/>
  </g>
 </g>
</svg>
