<?xml version="1.0" encoding="UTF-8"?>
<!DOCTYPE svg PUBLIC "-//W3C//DTD SVG 1.1//EN" "http://www.w3.org/Graphics/SVG/1.1/DTD/svg11.dtd">
<!-- Creator: CorelDRAW X7 -->
<svg xmlns="http://www.w3.org/2000/svg" xml:space="preserve" width="82.2803mm" height="71.3857mm" version="1.1" style="shape-rendering:geometricPrecision; text-rendering:geometricPrecision; image-rendering:optimizeQuality; fill-rule:evenodd; clip-rule:evenodd"
viewBox="0 0 952 826"
 xmlns:xlink="http://www.w3.org/1999/xlink">
 <defs>
  <style type="text/css">
   <![CDATA[
    .fil0 {fill:#0A0A0A}
   ]]>
  </style>
 </defs>
 <g id="Слой_x0020_1">
  <metadata id="CorelCorpID_0Corel-Layer"/>
  <g id="_1952168766544">
   <g>
    <path class="fil0" d="M945 206c-6,-9 -16,-15 -27,-16l-756 -75 -97 -103c-14,-15 -38,-16 -53,-2 -15,14 -16,38 -2,53l96 103 0 481c0,46 35,84 79,90 -3,8 -5,17 -5,26 0,35 28,63 63,63 34,0 62,-28 62,-63 0,-9 -2,-18 -5,-25l353 0c-3,7 -5,16 -5,25 0,35 28,63 62,63 35,0 63,-28 63,-63 0,-9 -2,-18 -5,-25l32 0c21,0 38,-17 38,-38 0,-20 -17,-37 -38,-37l-603 0c-9,0 -16,-7 -16,-16l0 -42 651 0c17,0 32,-12 36,-29l83 -340c2,-10 0,-21 -6,-30zm-142 324l-622 0 0 -338 687 69 -65 269z"/>
   </g>
   <g>
   </g>
   <g>
   </g>
   <g>
   </g>
   <g>
   </g>
   <g>
   </g>
   <g>
   </g>
   <g>
   </g>
   <g>
   </g>
   <g>
   </g>
   <g>
   </g>
   <g>
   </g>
   <g>
   </g>
   <g>
   </g>
   <g>
   </g>
   <g>
   </g>
  </g>
 </g>
</svg>
